<?xml version="1.0" encoding="windows-1252" standalone="no"?>
<svg xmlns="http://www.w3.org/2000/svg" xmlns:xlink="http://www.w3.org/1999/xlink" contentStyleType="text/css" height="598px" preserveAspectRatio="none" style="width:240px;height:598px;background:#FFFFFF;" version="1.1" viewBox="0 0 240 598" width="240px" zoomAndPan="magnify"><defs/><g><!--entity Keynote--><g id="elem_Keynote"><path d="M44,9.5 L44,38.7969 A3.5,3.5 0 0 0 47.5,42.2969 L91.5,42.2969 A3.5,3.5 0 0 0 95,38.7969 L95,16 L85,6 L47.5,6 A3.5,3.5 0 0 0 44,9.5 " fill="#F1F1F1" style="stroke:#181818;stroke-width:0.5;"/><path d="M85,6 L85,12.5 A3.5,3.5 0 0 0 88.5,16 L95,16 " fill="#F1F1F1" style="stroke:#181818;stroke-width:0.5;"/><text fill="#000000" font-family="sans-serif" font-size="14" lengthAdjust="spacing" textLength="31" x="54" y="28.9951">.key</text></g><!--entity File--><g id="elem_File"><path d="M47,122.5 L47,151.7969 A3.5,3.5 0 0 0 50.5,155.2969 L88.5,155.2969 A3.5,3.5 0 0 0 92,151.7969 L92,129 L82,119 L50.5,119 A3.5,3.5 0 0 0 47,122.5 " fill="#F1F1F1" style="stroke:#181818;stroke-width:0.5;"/><path d="M82,119 L82,125.5 A3.5,3.5 0 0 0 85.5,129 L92,129 " fill="#F1F1F1" style="stroke:#181818;stroke-width:0.5;"/><text fill="#000000" font-family="sans-serif" font-size="14" lengthAdjust="spacing" textLength="25" x="57" y="141.9951">File</text></g><!--entity OtherFile--><g id="elem_OtherFile"><path d="M6,219.5 L6,248.7969 A3.5,3.5 0 0 0 9.5,252.2969 L89.5,252.2969 A3.5,3.5 0 0 0 93,248.7969 L93,226 L83,216 L9.5,216 A3.5,3.5 0 0 0 6,219.5 " fill="#F1F1F1" style="stroke:#181818;stroke-width:0.5;"/><path d="M83,216 L83,222.5 A3.5,3.5 0 0 0 86.5,226 L93,226 " fill="#F1F1F1" style="stroke:#181818;stroke-width:0.5;"/><text fill="#000000" font-family="sans-serif" font-size="14" lengthAdjust="spacing" textLength="67" x="16" y="238.9951">OtherFile</text></g><!--entity IWAFile--><g id="elem_IWAFile"><path d="M128.5,219.5 L128.5,248.7969 A3.5,3.5 0 0 0 132,252.2969 L173,252.2969 A3.5,3.5 0 0 0 176.5,248.7969 L176.5,226 L166.5,216 L132,216 A3.5,3.5 0 0 0 128.5,219.5 " fill="#F1F1F1" style="stroke:#181818;stroke-width:0.5;"/><path d="M166.5,216 L166.5,222.5 A3.5,3.5 0 0 0 170,226 L176.5,226 " fill="#F1F1F1" style="stroke:#181818;stroke-width:0.5;"/><text fill="#000000" font-family="sans-serif" font-size="14" lengthAdjust="spacing" textLength="28" x="138.5" y="238.9951">.iwa</text></g><!--entity Chunk--><g id="elem_Chunk"><path d="M120,445.5 L120,474.7969 A3.5,3.5 0 0 0 123.5,478.2969 L181.5,478.2969 A3.5,3.5 0 0 0 185,474.7969 L185,452 L175,442 L123.5,442 A3.5,3.5 0 0 0 120,445.5 " fill="#F1F1F1" style="stroke:#181818;stroke-width:0.5;"/><path d="M175,442 L175,448.5 A3.5,3.5 0 0 0 178.5,452 L185,452 " fill="#F1F1F1" style="stroke:#181818;stroke-width:0.5;"/><text fill="#000000" font-family="sans-serif" font-size="14" lengthAdjust="spacing" textLength="45" x="130" y="464.9951">Chunk</text></g><!--entity SnappyChunk--><g id="elem_SnappyChunk"><path d="M93,332.5 L93,361.7969 A3.5,3.5 0 0 0 96.5,365.2969 L208.5,365.2969 A3.5,3.5 0 0 0 212,361.7969 L212,339 L202,329 L96.5,329 A3.5,3.5 0 0 0 93,332.5 " fill="#F1F1F1" style="stroke:#181818;stroke-width:0.5;"/><path d="M202,329 L202,335.5 A3.5,3.5 0 0 0 205.5,339 L212,339 " fill="#F1F1F1" style="stroke:#181818;stroke-width:0.5;"/><text fill="#000000" font-family="sans-serif" font-size="14" lengthAdjust="spacing" textLength="99" x="103" y="351.9951">SnappyChunk</text></g><!--entity ProtobufObject--><g id="elem_ProtobufObject"><path d="M86,558.5 L86,587.7969 A3.5,3.5 0 0 0 89.5,591.2969 L215.5,591.2969 A3.5,3.5 0 0 0 219,587.7969 L219,565 L209,555 L89.5,555 A3.5,3.5 0 0 0 86,558.5 " fill="#F1F1F1" style="stroke:#181818;stroke-width:0.5;"/><path d="M209,555 L209,561.5 A3.5,3.5 0 0 0 212.5,565 L219,565 " fill="#F1F1F1" style="stroke:#181818;stroke-width:0.5;"/><text fill="#000000" font-family="sans-serif" font-size="14" lengthAdjust="spacing" textLength="113" x="96" y="577.9951">ProtobufObject</text></g><!--reverse link Keynote to File--><g id="link_Keynote_File"><path d="M64.3075,55.36 C63.5547,60.881 62.8999,66.601 62.5,72 C61.3195,87.94 63.642,106.042 65.9224,118.916 " fill="none" id="Keynote-backto-File" style="stroke:#454645;stroke-width:1.0;"/><polygon fill="#454645" points="66.2914,42.341,61.4337,47.6704,64.4848,54.2042,69.3425,48.8748,66.2914,42.341" style="stroke:#454645;stroke-width:1.0;"/><text fill="#000000" font-family="sans-serif" font-size="13" lengthAdjust="spacing" textLength="8" x="56.0838" y="62.2966">1</text><text fill="#000000" font-family="sans-serif" font-size="13" lengthAdjust="spacing" textLength="7" x="56.6664" y="107.8018">*</text></g><!--link Keynote to File--><g id="link_Keynote_File"><path d="M69.5,42.344 C69.5,61.568 69.5,92.63 69.5,113.661 " fill="none" id="Keynote-to-File" style="stroke:#454645;stroke-width:1.0;stroke-dasharray:7.0,7.0;"/><polygon fill="#454645" points="69.5,118.778,73.5,109.778,69.5,113.778,65.5,109.778,69.5,118.778" style="stroke:#454645;stroke-width:1.0;"/><text fill="#000000" font-family="sans-serif" font-size="13" lengthAdjust="spacing" textLength="34" x="70.5" y="85.0669">unzip</text></g><!--reverse link File to OtherFile--><g id="link_File_OtherFile"><path d="M61.7042,175.03 C58.7547,189.04 55.5361,204.329 53.1451,215.686 " fill="none" id="File-backto-OtherFile" style="stroke:#454645;stroke-width:1.0;"/><polygon fill="none" points="54.8616,173.553,65.8317,155.424,68.5613,176.438,54.8616,173.553" style="stroke:#454645;stroke-width:1.0;"/></g><!--reverse link File to IWAFile--><g id="link_File_IWAFile"><path d="M98.0076,170.629 C111.226,185.758 126.4,203.126 137.373,215.686 " fill="none" id="File-backto-IWAFile" style="stroke:#454645;stroke-width:1.0;"/><polygon fill="none" points="92.6109,175.091,84.7235,155.424,103.1539,165.88,92.6109,175.091" style="stroke:#454645;stroke-width:1.0;"/></g><!--reverse link IWAFile to SnappyChunk--><g id="link_IWAFile_SnappyChunk"><path d="M147.308,265.36 C146.555,270.881 145.9,276.601 145.5,282 C144.319,297.94 146.642,316.042 148.922,328.916 " fill="none" id="IWAFile-backto-SnappyChunk" style="stroke:#454645;stroke-width:1.0;"/><polygon fill="#454645" points="149.291,252.341,144.4333,257.6704,147.4844,264.2042,152.3421,258.8748,149.291,252.341" style="stroke:#454645;stroke-width:1.0;"/><text fill="#000000" font-family="sans-serif" font-size="13" lengthAdjust="spacing" textLength="8" x="139.0832" y="272.2966">1</text><text fill="#000000" font-family="sans-serif" font-size="13" lengthAdjust="spacing" textLength="7" x="139.6659" y="317.8018">*</text></g><!--link IWAFile to SnappyChunk--><g id="link_IWAFile_SnappyChunk"><path d="M152.5,252.344 C152.5,271.568 152.5,302.63 152.5,323.661 " fill="none" id="IWAFile-to-SnappyChunk" style="stroke:#454645;stroke-width:1.0;stroke-dasharray:7.0,7.0;"/><polygon fill="#454645" points="152.5,328.778,156.5,319.778,152.5,323.778,148.5,319.778,152.5,328.778" style="stroke:#454645;stroke-width:1.0;"/><text fill="#000000" font-family="sans-serif" font-size="13" lengthAdjust="spacing" textLength="54" x="153.5" y="295.0669">dechunk</text></g><!--link SnappyChunk to Chunk--><g id="link_SnappyChunk_Chunk"><path d="M149.291,365.341 C147.815,374.183 146.231,385.127 145.5,395 C144.319,410.94 146.642,429.042 148.922,441.916 " fill="none" id="SnappyChunk-Chunk" style="stroke:#454645;stroke-width:1.0;"/><text fill="#000000" font-family="sans-serif" font-size="13" lengthAdjust="spacing" textLength="8" x="139.0832" y="385.2966">1</text><text fill="#000000" font-family="sans-serif" font-size="13" lengthAdjust="spacing" textLength="8" x="138.5065" y="430.8018">1</text></g><!--link SnappyChunk to Chunk--><g id="link_SnappyChunk_Chunk"><path d="M152.5,365.344 C152.5,384.568 152.5,415.63 152.5,436.661 " fill="none" id="SnappyChunk-to-Chunk" style="stroke:#454645;stroke-width:1.0;stroke-dasharray:7.0,7.0;"/><polygon fill="#454645" points="152.5,441.778,156.5,432.778,152.5,436.778,148.5,432.778,152.5,441.778" style="stroke:#454645;stroke-width:1.0;"/><text fill="#000000" font-family="sans-serif" font-size="13" lengthAdjust="spacing" textLength="79" x="153.5" y="408.0669">uncompress</text></g><!--reverse link Chunk to ProtobufObject--><g id="link_Chunk_ProtobufObject"><path d="M147.308,491.3604 C146.555,496.8813 145.9,502.6009 145.5,508 C144.319,523.94 146.642,542.0417 148.922,554.9165 " fill="none" id="Chunk-backto-ProtobufObject" style="stroke:#454645;stroke-width:1.0;"/><polygon fill="#454645" points="149.291,478.341,144.433,483.6702,147.4838,490.2041,152.3418,484.875,149.291,478.341" style="stroke:#454645;stroke-width:1.0;"/><text fill="#000000" font-family="sans-serif" font-size="13" lengthAdjust="spacing" textLength="8" x="139.0832" y="498.2966">1</text><text fill="#000000" font-family="sans-serif" font-size="13" lengthAdjust="spacing" textLength="7" x="139.6659" y="543.8025">*</text></g><!--link Chunk to ProtobufObject--><g id="link_Chunk_ProtobufObject"><path d="M152.5,478.344 C152.5,497.5677 152.5,528.6296 152.5,549.6606 " fill="none" id="Chunk-to-ProtobufObject" style="stroke:#454645;stroke-width:1.0;stroke-dasharray:7.0,7.0;"/><polygon fill="#454645" points="152.5,554.778,156.5,545.778,152.5,549.778,148.5,545.778,152.5,554.778" style="stroke:#454645;stroke-width:1.0;"/><text fill="#000000" font-family="sans-serif" font-size="13" lengthAdjust="spacing" textLength="74" x="153.5" y="521.0669">splitObjects</text></g><!--SRC=[NOun3u8m48LtViNPaGGILs9CZ8c9SS34mRdW4IfG6jfgCFvueQKKMTgxT_U-TnjLOeFmObb7kGeALYDSiEUjGg0II5nXJwny6XvRfOEfy-tvVXWRky_UTDe_bffNjhnnAaHl1KSdMm9X5049YKKRnkuxI9xljIaaS66ZVVOl-UliQzUgDjD5cZqnLy5YrJ06Wlcjm-iElRAxw-DuRww613J_C37VDGwM6GayC3VifJfkkRdcUTk83gKC_F0_DW4fQgPi8ty0]--></g></svg>